<svg id="visual" viewBox="0 0 900 200" width="900" height="200" xmlns="http://www.w3.org/2000/svg" xmlns:xlink="http://www.w3.org/1999/xlink" version="1.1"><rect x="0" y="0" width="900" height="200" fill="#181818"></rect><path d="M0 96L21.5 92.7C43 89.3 86 82.7 128.8 76.5C171.7 70.3 214.3 64.7 257.2 61.2C300 57.7 343 56.3 385.8 60.7C428.7 65 471.3 75 514.2 81.2C557 87.3 600 89.7 642.8 82.5C685.7 75.3 728.3 58.7 771.2 50.8C814 43 857 44 878.5 44.5L900 45L900 201L878.5 201C857 201 814 201 771.2 201C728.3 201 685.7 201 642.8 201C600 201 557 201 514.2 201C471.3 201 428.7 201 385.8 201C343 201 300 201 257.2 201C214.3 201 171.7 201 128.8 201C86 201 43 201 21.5 201L0 201Z" fill="#c62368"></path><path d="M0 63L21.5 65.2C43 67.3 86 71.7 128.8 72.5C171.7 73.3 214.3 70.7 257.2 69.2C300 67.7 343 67.3 385.8 74.2C428.7 81 471.3 95 514.2 99.5C557 104 600 99 642.8 92.8C685.7 86.7 728.3 79.3 771.2 76.3C814 73.3 857 74.7 878.5 75.3L900 76L900 201L878.5 201C857 201 814 201 771.2 201C728.3 201 685.7 201 642.8 201C600 201 557 201 514.2 201C471.3 201 428.7 201 385.8 201C343 201 300 201 257.2 201C214.3 201 171.7 201 128.8 201C86 201 43 201 21.5 201L0 201Z" fill="#d51e5b"></path><path d="M0 135L21.5 127.8C43 120.7 86 106.3 128.8 99.8C171.7 93.3 214.3 94.7 257.2 95.7C300 96.7 343 97.3 385.8 101.3C428.7 105.3 471.3 112.7 514.2 112.7C557 112.7 600 105.3 642.8 101.5C685.7 97.7 728.3 97.3 771.2 97.2C814 97 857 97 878.5 97L900 97L900 201L878.5 201C857 201 814 201 771.2 201C728.3 201 685.7 201 642.8 201C600 201 557 201 514.2 201C471.3 201 428.7 201 385.8 201C343 201 300 201 257.2 201C214.3 201 171.7 201 128.8 201C86 201 43 201 21.5 201L0 201Z" fill="#e1204c"></path><path d="M0 144L21.5 146.5C43 149 86 154 128.8 150.5C171.7 147 214.3 135 257.2 132.5C300 130 343 137 385.8 142.5C428.7 148 471.3 152 514.2 150.2C557 148.3 600 140.7 642.8 137.2C685.7 133.7 728.3 134.3 771.2 138.2C814 142 857 149 878.5 152.5L900 156L900 201L878.5 201C857 201 814 201 771.2 201C728.3 201 685.7 201 642.8 201C600 201 557 201 514.2 201C471.3 201 428.7 201 385.8 201C343 201 300 201 257.2 201C214.3 201 171.7 201 128.8 201C86 201 43 201 21.5 201L0 201Z" fill="#ea2b3a"></path><path d="M0 158L21.5 158.3C43 158.7 86 159.3 128.8 162.3C171.7 165.3 214.3 170.7 257.2 173.7C300 176.7 343 177.3 385.8 177.3C428.7 177.3 471.3 176.7 514.2 172C557 167.3 600 158.7 642.8 157.8C685.7 157 728.3 164 771.2 164.7C814 165.3 857 159.7 878.5 156.8L900 154L900 201L878.5 201C857 201 814 201 771.2 201C728.3 201 685.7 201 642.8 201C600 201 557 201 514.2 201C471.3 201 428.7 201 385.8 201C343 201 300 201 257.2 201C214.3 201 171.7 201 128.8 201C86 201 43 201 21.5 201L0 201Z" fill="#ef3a24"></path></svg>