<svg id="visual" viewBox="0 0 900 200" width="900" height="200" xmlns="http://www.w3.org/2000/svg" xmlns:xlink="http://www.w3.org/1999/xlink" version="1.1"><rect x="0" y="0" width="900" height="200" fill="#181818"></rect><path d="M0 121L21.5 126.2C43 131.3 86 141.7 128.8 147.7C171.7 153.7 214.3 155.3 257.2 150.2C300 145 343 133 385.8 124.5C428.7 116 471.3 111 514.2 116.7C557 122.3 600 138.7 642.8 145.5C685.7 152.3 728.3 149.7 771.2 150.3C814 151 857 155 878.5 157L900 159L900 0L878.5 0C857 0 814 0 771.2 0C728.3 0 685.7 0 642.8 0C600 0 557 0 514.2 0C471.3 0 428.7 0 385.8 0C343 0 300 0 257.2 0C214.3 0 171.7 0 128.8 0C86 0 43 0 21.5 0L0 0Z" fill="#c62368"></path><path d="M0 129L21.5 121.5C43 114 86 99 128.8 91.2C171.7 83.3 214.3 82.7 257.2 90.8C300 99 343 116 385.8 117.3C428.7 118.7 471.3 104.3 514.2 104.7C557 105 600 120 642.8 123.8C685.7 127.7 728.3 120.3 771.2 112.7C814 105 857 97 878.5 93L900 89L900 0L878.5 0C857 0 814 0 771.2 0C728.3 0 685.7 0 642.8 0C600 0 557 0 514.2 0C471.3 0 428.7 0 385.8 0C343 0 300 0 257.2 0C214.3 0 171.7 0 128.8 0C86 0 43 0 21.5 0L0 0Z" fill="#d51e5b"></path><path d="M0 77L21.5 77C43 77 86 77 128.8 81C171.7 85 214.3 93 257.2 91.8C300 90.7 343 80.3 385.8 78.3C428.7 76.3 471.3 82.7 514.2 84C557 85.3 600 81.7 642.8 79.8C685.7 78 728.3 78 771.2 74.8C814 71.7 857 65.3 878.5 62.2L900 59L900 0L878.5 0C857 0 814 0 771.2 0C728.3 0 685.7 0 642.8 0C600 0 557 0 514.2 0C471.3 0 428.7 0 385.8 0C343 0 300 0 257.2 0C214.3 0 171.7 0 128.8 0C86 0 43 0 21.5 0L0 0Z" fill="#e1204c"></path><path d="M0 77L21.5 75.5C43 74 86 71 128.8 67.2C171.7 63.3 214.3 58.7 257.2 56.7C300 54.7 343 55.3 385.8 55.7C428.7 56 471.3 56 514.2 53.8C557 51.7 600 47.3 642.8 45.7C685.7 44 728.3 45 771.2 45.7C814 46.3 857 46.7 878.5 46.8L900 47L900 0L878.5 0C857 0 814 0 771.2 0C728.3 0 685.7 0 642.8 0C600 0 557 0 514.2 0C471.3 0 428.7 0 385.8 0C343 0 300 0 257.2 0C214.3 0 171.7 0 128.8 0C86 0 43 0 21.5 0L0 0Z" fill="#ea2b3a"></path><path d="M0 31L21.5 33C43 35 86 39 128.8 37.7C171.7 36.3 214.3 29.7 257.2 28.5C300 27.3 343 31.7 385.8 34.2C428.7 36.7 471.3 37.3 514.2 35.7C557 34 600 30 642.8 30.3C685.7 30.7 728.3 35.3 771.2 36C814 36.7 857 33.3 878.5 31.7L900 30L900 0L878.5 0C857 0 814 0 771.2 0C728.3 0 685.7 0 642.8 0C600 0 557 0 514.2 0C471.3 0 428.7 0 385.8 0C343 0 300 0 257.2 0C214.3 0 171.7 0 128.8 0C86 0 43 0 21.5 0L0 0Z" fill="#ef3a24"></path></svg>